<svg xmlns="http://www.w3.org/2000/svg" viewBox="0 0 397.7 311.7" role="img" aria-label="Solana">
  <defs>
    <linearGradient id="solana-gradient" x1="360.9" x2="141.2" y1="351.5" y2="-69.3" gradientUnits="userSpaceOnUse">
      <stop offset="0" stop-color="#00FFA3"/>
      <stop offset="1" stop-color="#DC1FFF"/>
    </linearGradient>
  </defs>
  <path fill="url(#solana-gradient)" d="M64.6 237.9c2.4-2.4 5.7-3.8 9.1-3.8h317.6c5.7 0 8.6 6.9 4.6 10.9l-62.8 62.8c-2.4 2.4-5.7 3.8-9.1 3.8H6.4c-5.7 0-8.6-6.9-4.6-10.9l62.8-62.8Z"/>
  <path fill="url(#solana-gradient)" d="M64.6 3.8C67 1.4 70.3 0 73.7 0h317.6c5.7 0 8.6 6.9 4.6 10.9l-62.8 62.8c-2.4 2.4-5.7 3.8-9.1 3.8H6.4c-5.7 0-8.6-6.9-4.6-10.9L64.6 3.8Z"/>
  <path fill="url(#solana-gradient)" d="M333.1 120.1c-2.4-2.4-5.7-3.8-9.1-3.8H6.4c-5.7 0-8.6 6.9-4.6 10.9L64.6 190c2.4 2.4 5.7 3.8 9.1 3.8h317.6c5.7 0 8.6-6.9 4.6-10.9l-62.8-62.8Z"/>
</svg>
